<?xml version="1.0" encoding="UTF-8"?>
<svg xmlns="http://www.w3.org/2000/svg" xmlns:xlink="http://www.w3.org/1999/xlink" viewBox="0 0 152.8 116.33">
  <defs>
    <style>
      .cls-1 {
        mix-blend-mode: multiply;
        opacity: .4;
      }

      .cls-2 {
        isolation: isolate;
      }

      .cls-3 {
        fill: #ffc729;
      }

      .cls-4 {
        fill: url(#radial-gradient);
      }

      .cls-5 {
        fill: #ef7328;
      }

      .cls-6 {
        fill: url(#radial-gradient-2);
      }

      .cls-7 {
        fill: #f9cc69;
      }
    </style>
    <radialGradient id="radial-gradient" cx="79.89" cy="58.99" fx="79.89" fy="58.99" r="67.73" gradientTransform="translate(2.54 -5.43) rotate(3.74)" gradientUnits="userSpaceOnUse">
      <stop offset="0" stop-color="#fac538"/>
      <stop offset="1" stop-color="#ef7328"/>
    </radialGradient>
    <radialGradient id="radial-gradient-2" cx="83.26" cy="113.39" fx="83.26" fy="113.39" r="21.79" gradientTransform="translate(0 -98.57) scale(1 1.87)" xlink:href="#radial-gradient"/>
  </defs>
  <g class="cls-2">
    <g id="_图层_2" data-name="图层 2">
      <g id="Objects">
        <g>
          <path class="cls-4" d="m141.96,105.72c3.57-1.95,6.93-4.52,8.99-8.03s2.59-8.09.62-11.65c-1.97-3.56-6.76-5.54-10.4-3.73,3.65-2.33,3.86-8.11,1.07-11.42-2.79-3.31-7.63-4.31-11.88-3.51-.62-3.01.9-6.03,1.12-9.1.22-3.07-2.22-6.87-5.12-5.84,1.02-10.4-1.32-21.1-6.6-30.12-2.99-5.12-7.26-9.94-12.99-11.51-5.73-1.56-12.9,1.39-14.22,7.17C89.2,8.48,80.05,1.39,70.04.19c-10.01-1.2-20.43,3.41-26.54,11.42-6.42,8.41-7.43,21.7.28,28.95-5-1.56-11.05-1.17-14.67,2.6s-2.9,11.32,2.03,13.05c-2.95.58-6.13,1.57-7.78,4.09-1.58,2.41-1.3,5.66-.05,8.25,1.25,2.59,3.35,4.66,5.4,6.67-7.91-1.74-17.01-3.23-23.42,1.72-5.06,3.91-6.78,11.55-3.9,17.26,2.88,5.71,10.06,8.85,16.21,7.09-.54,4.58,3,8.85,7.23,10.68s9.01,1.77,13.62,1.67c18.02-.39,36.03-.92,54.04-1.58,15.85-.58,35.07,1.52,49.47-6.33Z"/>
          <path class="cls-7" d="m45.8,11.96c6.98-5.03,16.57-5.89,24.63-2.87,8.06,3.02,14.55,9.63,18.15,17.45,3.6-4.41,7.72-9.13,13.35-9.95,2.42-.35,4.9.07,7.24.8,4.53,1.42,8.67,4.03,11.96,7.46-.43-.85-.88-1.7-1.36-2.52-2.99-5.12-7.26-9.94-12.99-11.51-5.72-1.56-12.9,1.39-14.22,7.17C89.2,8.48,80.05,1.39,70.04.19c-10.01-1.2-20.43,3.41-26.54,11.42-1.55,2.03-2.78,4.35-3.65,6.8.08-.12.14-.26.22-.38,1.51-2.35,3.45-4.43,5.72-6.06Z"/>
          <path class="cls-5" d="m48.53,54.67c1.86-2.45,4.77-3.97,7.79-4.57,1.78-.35,3.67-.4,5.39.21,1.71.61,3.23,1.95,3.74,3.69.92-1.28,2.57-1.99,4.13-1.78s2.97,1.34,3.51,2.81c.94-1.62,2.92-2.44,4.79-2.37s3.64.89,5.21,1.91c.19-6.63,4.72-12.93,10.95-15.23,6.23-2.29,13.76-.44,18.21,4.48,4.45,4.92,5.53,12.61,2.62,18.57,2.93.18,5.1,3.73,3.91,6.41.05-2.89-2.97-5.42-5.81-4.85.66-3.08,1.32-6.21,1.15-9.36s-1.26-6.37-3.62-8.47c-1.57-1.4-3.59-2.21-5.63-2.7-5.07-1.2-10.67-.47-15.01,2.41-4.35,2.88-7.27,7.97-7.1,13.18-1.05-1.83-3.12-3.05-5.22-2.97-2.1.07-4.13,1.49-4.81,3.48.01-1.78-1.44-3.44-3.2-3.68-1.76-.24-3.6.99-4.05,2.71-1.15-1.65-2.34-3.35-4.07-4.37-2.91-1.72-6.8-1.09-9.53.91-1,.73-1.87,1.63-2.62,2.62-.44.58-1.51,3.28-2.05,3.5-1.63.65.74-5.78,1.31-6.54Z"/>
          <path class="cls-5" d="m49.69,82.22c1.89,1.55,4.65,1.97,6.92,1.06,2.27-.91,3.97-3.11,4.27-5.54,2.78.57,5.6-1.31,7.03-3.76s1.79-5.36,2.11-8.19c2.46,2.28,5.83,3.57,9.18,3.5,3.36-.06,6.67-1.47,9.04-3.85-.39,2.14,1.88,3.8,3.96,4.41,3.29.97,6.8.79,10.23.61-2.05,1.1-2.61,3.98-1.68,6.11s2.98,3.57,5.11,4.49,4.42,1.44,6.56,2.36c-5.06,2.89-7.44,9.74-5.25,15.15-3.22,2.09-4.38,6.83-2.48,10.17-13.83-.71-27.69-1.42-41.52-.63-5.07.29-10.37.75-15.01-1.31-.98-.44-4.91-1.7-4.97-2.67-.04-.69,1.14-1.62,1.53-2.09.61-.76,1.18-1.55,1.69-2.38,2.06-3.31,3.32-7.12,3.64-11,.09-1.11.1-2.22.04-3.33-.03-.55.03-2.75-.4-3.1Z"/>
          <path class="cls-5" d="m19.31,76.56c5.46,1.11,10.52,3.78,14.88,7.25-2.51-4.08-3.51-9.08-2.76-13.81.31-1.91.91-3.82,2.09-5.36,1.16-1.51,2.87-2.6,4.73-3.02-3.51-2.88-5.88-7.13-6.48-11.64-.24-1.78-.2-3.6.1-5.38.23-1.35.8-2.64,1.07-3.97-1.44.56-2.76,1.39-3.85,2.53-3.63,3.77-2.9,11.32,2.03,13.05-2.95.58-6.13,1.57-7.78,4.09-1.58,2.41-1.3,5.66-.05,8.25s3.35,4.66,5.4,6.67c-7.91-1.74-17.01-3.23-23.42,1.72-.45.35-.87.74-1.27,1.14,4.73-2.14,10.18-2.55,15.28-1.52Z"/>
          <g class="cls-1">
            <path class="cls-5" d="m1.39,94.19c2.88,5.71,10.06,8.85,16.21,7.09-.54,4.58,3,8.85,7.23,10.68,4.23,1.83,9.01,1.77,13.62,1.67,18.02-.39,36.03-.92,54.04-1.58,15.85-.58,35.07,1.53,49.47-6.33,3.57-1.95,6.93-4.52,8.99-8.03,2.05-3.51,2.59-8.09.62-11.65-1.97-3.56-6.76-5.54-10.4-3.73,2.64-1.69,3.47-5.18,2.68-8.23-2.41,1.28-5.04,2.06-7.76,2.02,5.18,6.06,3.62,16.58-3.09,20.87-6.71,4.29-16.92,1.3-20.25-5.94-5.49,9.39-20.19,11.51-28.11,4.06-2.47,3.49-6.78,5.6-11.05,5.43s-8.39-2.65-10.56-6.33c-4.7,9.4-16.51,13.94-26.82,11.92-6.75-1.33-13.63-6.11-14.18-12.97-8.49,2.12-16.92-.36-21.81-7.41-.48,2.87-.14,5.88,1.18,8.48Z"/>
          </g>
          <path class="cls-5" d="m117.67,77.55c1.97-.32,3.67-1.92,4.1-3.87,1.65,1.25,3.84,1.7,5.88,1.37,2.04-.33,3.93-1.42,5.35-2.92-.34,2.2-1.97,4.14-4.07,4.86-2.1.72-4.58.18-6.2-1.35-.74,2.05-2.9,3.5-5.08,3.4-1.94-.08-3.64-1.35-4.5-3.06,1.2,1.13,2.82,1.83,4.51,1.56Z"/>
          <path class="cls-5" d="m27.1,86.72c1.63.89,3.84.95,5.22-.3,1.38,1.44,3.71,1.52,5.58.83,2.95-1.09,5.16-3.95,5.49-7.08.92,1.25.47,3.03-.24,4.41-.63,1.22-1.45,2.37-2.54,3.21-2.36,1.82-5.91,1.89-8.33.16-1.78,1.41-4.46,1.57-6.39.37-1.6-.99-2.94-3.22-2.57-5.14,1.26.36,2.42,2.8,3.79,3.55Z"/>
          <path class="cls-7" d="m62.41,34.61c2.83-1.11,6.3-.29,8.34,1.97,1.17,1.31,1.85,2.97,2.51,4.6,1.59-1.39,3.98-1.82,5.95-1.06,1.98.76,3.46,2.67,3.71,4.78-.05-.92-.73-1.71-1.55-2.12-.82-.42-1.75-.52-2.67-.58-1.98-.11-4.4.28-5.16,2.11-.86-3.36-3.59-6.28-6.99-6.98-3.2-.66-6.71,1.15-7.94,4.24-.09.23-.2.5-.44.58-.75.25,0-4.33.42-4.83.89-1.07,2.53-2.22,3.82-2.73Z"/>
          <path class="cls-7" d="m102.93,31.67c1.33-.95,2.9-1.69,4.53-1.57,1.63.12,3.25,1.34,3.38,2.97.5-2.06,2.47-3.62,4.58-3.86s4.27.75,5.65,2.37c1.38,1.61,2.03,3.78,2,5.91-.38-2.88-2.53-5.57-5.37-6.17-2.84-.6-6.11,1.27-6.66,4.12-.44-2.46-2.91-4.39-5.4-4.23-2.64.17-4.07,2.21-4.84,4.46-.78-1.4,1.1-3.25,2.14-3.99Z"/>
          <path class="cls-3" d="m22.06,94.58c-.3-.15-.51-.24-.59-.24-.11,0,.11.09.59.24Z"/>
          <path class="cls-3" d="m43.42,114.01c.76.19,48.25,5.11,83.82,0,0,0-11.73-2.08-17.41-1.51s6.24-7.57,6.24-7.57c0,0,5.3-3.78-10.22-2.46,0,0-5.3,1.7-2.27-8.32,3.03-10.03,7.19-25.54,7.19-25.54l-16.27,20.06.38-59.41-19.11,56-29.52-58.84,17.22,72.09-14.19-7.89,4.35,12.81s-33.3-9.08-32.16-9.08,28.19,17.6,28.19,17.6l-6.24,2.08Z"/>
          <path class="cls-6" d="m103.78,116.04c-.25-.06-.51-.12-.76-.18-.63-.17-1.41-.58-1.27-1.22.06-.26.27-.46.47-.64,2.06-1.83,4.13-3.65,6.19-5.48-3.71.27-7.42.53-11.13.8-.26.02-.54.03-.75-.12-.34-.25-.3-.77-.21-1.19.89-4.34,1.79-8.69,2.68-13.03-3.63,3.56-6.48,7.81-9.31,12.02v-9.3c.01-5.1.01-10.22-.75-15.25-.13-.86-.67-1.97-1.5-1.71-.3.1-.51.37-.7.63-5.32,7.58-4.25,17.8-6.94,26.66-1.69-6.07-3.78-12.02-6.25-17.81-1.02-2.38-2.13-4.78-3.91-6.65-.7,1.51-.53,3.27-.32,4.92.9,7.27,2.09,14.5,3.58,21.67-5.03-.85-8.22-6.28-13.18-7.48-.25.86.3,1.73.82,2.45,1.7,2.35,3.41,4.7,5.11,7.05-2.5-.34-5.03-.49-7.55-.45,2,.9,4.01,1.79,6.01,2.69-.91.28-1.79.64-2.65,1.05,11.38.67,26.81,1.19,42.31.56Z"/>
          <path class="cls-3" d="m120.45,77.72c.43.75-.14,1.65-.67,2.33-1.34,1.68-2.66,3.76-4.24,5.15-.74-2.25,5.28-6.83,4.91-7.48Z"/>
          <path class="cls-3" d="m47.64,62.14c-.08-.17-.19-.37-.38-.37-.27,0-.35.36-.33.62.14,2.73,2.63,13.35,5.87,13.7-.76-4.7-3.21-9.63-5.16-13.96Z"/>
          <path class="cls-3" d="m98.32,44.9s-2.55,14.64-1.23,21.32c0,0,2.11-11.98,1.23-21.32Z"/>
        </g>
      </g>
    </g>
  </g>
</svg>